<?xml version="1.0" encoding="UTF-8" standalone="no"?><!DOCTYPE svg PUBLIC "-//W3C//DTD SVG 1.1//EN" "http://www.w3.org/Graphics/SVG/1.1/DTD/svg11.dtd"><svg width="100%" height="100%" viewBox="0 0 150 150" version="1.1" xmlns="http://www.w3.org/2000/svg" xmlns:xlink="http://www.w3.org/1999/xlink" xml:space="preserve" xmlns:serif="http://www.serif.com/" style="fill-rule:evenodd;clip-rule:evenodd;stroke-linejoin:round;stroke-miterlimit:2;"><path id="base" d="M150,75c0,-41.394 -33.606,-75 -75,-75c-41.394,0 -75,33.606 -75,75c0,41.394 33.606,75 75,75c41.394,0 75,-33.606 75,-75Z" style="fill:#00b894;"/><path id="outline" d="M144,75c0,-38.082 -30.918,-69 -69,-69c-38.082,0 -69,30.918 -69,69c0,38.082 30.918,69 69,69c38.082,0 69,-30.918 69,-69Z" style="fill:#dfe6e9;"/><path id="core" d="M141,75c0,-36.426 -29.574,-66 -66,-66c-36.426,0 -66,29.574 -66,66c0,36.426 29.574,66 66,66c36.426,0 66,-29.574 66,-66Z" style="fill:#81ecec;"/><clipPath id="_clip1"><path d="M141,75c0,-36.426 -29.574,-66 -66,-66c-36.426,0 -66,29.574 -66,66c0,36.426 29.574,66 66,66c36.426,0 66,-29.574 66,-66Z"/></clipPath><g clip-path="url(#_clip1)"><g id="lily"><path d="M82.523,95.334c0,0 1.262,0.085 2.029,-0.102c0.767,-0.188 3.732,-1.142 4.534,-1.142c0.801,0 3.102,-0.563 3.767,-0.665c0.664,-0.102 4.346,-0.477 5.437,-0.477c1.091,0 6.341,-0.256 8.028,-0.137c1.688,0.12 5.454,0.222 6.579,0.443c1.125,0.222 4.057,0.341 5.131,0.444c1.074,0.102 2.898,0.204 3.971,0.392c1.074,0.187 2.728,0.511 3.665,0.596c0.938,0.085 3.29,0.29 3.58,0.324c0.289,0.034 0.715,0.256 0.306,0.648c-0.409,0.392 -0.954,1.295 -0.869,2.062c0.085,0.767 0.034,1.415 0.119,1.909c0.086,0.495 -0.119,1.483 -0.204,1.977c-0.085,0.495 -0.137,0.768 -0.409,1.143c-0.273,0.374 -0.546,0.443 -0.904,0.818c-0.358,0.375 -0.204,0.409 -0.494,0.681c-0.29,0.273 -1.159,0.427 -1.909,1.296c-0.75,0.869 -1.142,1.278 -2.079,2.761c-0.938,1.483 -1.688,3.085 -2.455,3.631c-0.767,0.545 -1.756,0.545 -2.096,0.665c-0.341,0.119 -1.023,0.92 -1.688,1.073c-0.665,0.154 -1.278,-0.289 -2.148,-0.545c-0.869,-0.256 -5.386,0.273 -6.289,1.04c-0.904,0.767 -3.034,3.613 -3.631,4.073c-0.596,0.461 -1.772,1.381 -4.704,0.784c-2.932,-0.596 -2.932,-0.681 -3.631,-0.545c-0.699,0.136 -1.176,0.409 -1.875,0.972c-0.699,0.562 -3.085,2.011 -4.21,2.147c-1.125,0.137 -2.522,-0.255 -3.443,-0.102c-0.92,0.153 -0.665,0.341 -1.585,0.29c-0.92,-0.051 -3.494,-0.955 -6.307,-0.733c-2.812,0.221 -3.46,0.119 -4.704,0.477c-1.244,0.358 -2.795,1.722 -4.074,1.79c-1.278,0.068 -1.023,0.119 -2.045,-0.529c-1.023,-0.647 -2.182,-1.5 -3.921,-1.789c-1.738,-0.29 -2.284,-0.461 -2.863,-0.409c-0.58,0.051 -2.625,0.664 -3.375,0.937c-0.75,0.273 -0.869,0.477 -1.517,0.443c-0.648,-0.034 -2.778,-1.159 -3.733,-1.397c-0.954,-0.239 -3.443,-1.16 -5.113,-1.228c-1.671,-0.068 -2.421,-0.187 -3.188,-0.375c-0.767,-0.187 -0.46,-0.443 -2.062,-0.494c-1.603,-0.051 -3.392,-0.511 -4.415,-1.125c-1.023,-0.614 -4.312,-2.199 -5.267,-2.676c-0.954,-0.477 -2.829,-1.449 -3.136,-1.824c-0.307,-0.375 -0.392,-0.392 -1.415,-1.38c-1.023,-0.989 -2.488,-1.995 -3.307,-3.631c-0.818,-1.636 -1.09,-2.08 -1.176,-2.659c-0.085,-0.58 -0.102,-1.33 -0.375,-1.841c-0.272,-0.511 -1.823,-1.704 -2.301,-2.352c-0.477,-0.648 -1.466,-2.608 -1.483,-3.409c-0.017,-0.801 0.563,-3.324 1.091,-4.415c0.529,-1.091 1.705,-2.574 2.114,-3.204c0.409,-0.631 3.324,-4.449 4.414,-5.233c1.091,-0.784 2.319,-1.824 3.069,-2.08c0.75,-0.255 1.977,-0.375 2.42,-0.664c0.443,-0.29 2.983,-2.489 4.006,-3.068c1.022,-0.58 3.613,-1.654 4.772,-1.995c1.159,-0.341 4.108,-0.835 4.568,-0.681c0.46,0.153 1.296,0.272 2.148,-0.256c0.852,-0.528 2.897,-1.261 3.443,-1.517c0.545,-0.256 2.267,-1.381 3.46,-1.824c1.193,-0.443 4.534,-0.068 5.54,-0.222c1.005,-0.153 3.375,-0.801 4.295,-0.732c0.92,0.068 2.233,0.494 3.886,1.159c1.654,0.664 3.068,0.971 3.972,0.068c0.903,-0.904 1.346,-1.926 2.829,-2.165c1.483,-0.239 5.08,0 6.426,0.648c1.347,0.648 1.977,1.057 1.977,1.057c5.972,-0.847 11.808,-0.884 17.506,-0.086c0,0 0.801,0.444 1.96,0.733c1.159,0.29 3.426,0.665 4.039,0.716c0.614,0.051 3.972,1.04 5.233,1.756c1.262,0.716 2.25,1.159 3.136,1.261c0.887,0.102 2.233,-0.136 2.438,0.137c0.204,0.272 0.239,0.613 -0.443,1.414c-0.682,0.801 -2.744,2.693 -4.449,3.631c-1.704,0.937 -4.568,2.318 -7.585,3.699c-3.017,1.38 -14.727,6.051 -16.755,6.903c-2.029,0.852 -4.074,1.807 -4.466,2.062c-0.392,0.256 -1.142,0.512 -1.79,0.648Z" style="fill:#a1ae3c;"/><path d="M58.804,62.735c0.035,0.159 0.231,0.107 0.289,0.156c0.058,0.05 0,0.149 0.107,0.207c0.108,0.058 0.223,0.058 0.256,0.14c0.033,0.083 0.017,0.165 0.141,0.248c0.124,0.082 0.173,0.107 0.231,0.165c0.058,0.058 -0.008,0.165 0.115,0.355c0.124,0.19 0.562,1.032 1.536,0.966c0.974,-0.066 1.758,-0.297 2.179,-0.619c0.421,-0.322 0.289,-0.793 0.289,-0.793l-2.732,-1.213c0,0 -0.95,-0.207 -1.139,-0.19c-0.19,0.016 -0.273,-0.017 -0.446,0.008c-0.174,0.025 -0.273,0.173 -0.372,0.198c-0.099,0.025 -0.19,-0.016 -0.322,0.066c-0.132,0.083 -0.173,0.116 -0.132,0.306Z" style="fill:#3d361c;"/><path d="M101.838,68.96c1.173,-0.249 1.74,-0.143 2.144,-0.143c0.569,0 2.924,-0.146 3.426,-0.278c0.503,-0.132 2.527,-0.41 3.03,-0.45c0.502,-0.039 2.539,-0.304 2.976,-0.383c0.437,-0.08 3.042,-0.569 1.984,0.463c-1.058,1.032 -2.169,1.574 -3.003,1.825c-0.833,0.252 -3.571,1.204 -3.994,1.376c-0.424,0.172 -2.682,0.962 -4.862,1.188c-2.181,0.227 -2.651,0.362 -3.511,0.344c-0.859,-0.018 -2.452,0.091 -3.456,-0.063c-1.005,-0.154 -2.697,-0.371 -2.823,-0.461c-0.127,-0.091 -0.869,-0.38 -1.348,-0.317c-0.48,0.063 -0.969,0.009 -1.475,0.307c-0.507,0.299 -0.67,0.598 -0.878,0.96c-0.208,0.362 -1.62,1.755 -2.633,2.044c-1.013,0.29 -3.619,1.195 -4.732,1.249c-1.113,0.054 -4.28,0.29 -5.076,0.19c-0.797,-0.099 -3.782,-0.298 -4.642,-0.389c-0.86,-0.09 -1.773,-0.109 -1.963,-0.308c-0.19,-0.199 -0.616,-1.122 -0.127,-1.321c0.488,-0.199 1.574,-0.38 2.054,-0.597c0.479,-0.217 1.692,-0.724 2.416,-0.896c0.724,-0.171 4.406,-0.859 4.886,-0.932c0.479,-0.072 2.18,-0.262 2.841,-0.407c0.66,-0.144 1.529,-0.19 1.71,-0.289c0.181,-0.1 0.688,-0.335 0.136,-0.48c-0.552,-0.145 -1.023,-0.271 -1.33,-0.443c-0.308,-0.172 -0.181,-0.226 -0.67,-0.063c-0.489,0.162 -2.353,-0.172 -3.203,-0.218c-0.851,-0.045 -1.9,-0.389 -2.742,-0.533c-0.841,-0.145 -2.56,-0.797 -2.922,-1.113c-0.362,-0.317 -4.859,-2.253 -5.311,-2.443c-0.453,-0.19 -3.475,-1.638 -3.964,-1.882c-0.488,-0.245 -3.293,-1.738 -3.818,-1.991c-0.525,-0.253 -1.103,-0.404 -1.144,-0.885c-0.018,-0.209 0.992,-0.437 2.196,-0.185c1.203,0.251 5.066,1.362 5.939,1.561c0.873,0.198 2.341,0.661 2.341,0.661c0,0 -2.844,-1.587 -3.359,-1.878c-0.516,-0.291 -2.21,-1.231 -2.501,-1.389c-0.291,-0.159 -0.912,-0.503 0.199,-0.781c1.111,-0.278 4.273,-0.264 6.442,0.146c2.169,0.41 3.069,0.542 3.069,0.542c0,0 -3.453,-4.564 -4.63,-6.363c-1.177,-1.799 -2.659,-4.696 -2.831,-4.921c-0.172,-0.224 -0.423,-0.806 -0.066,-0.965c0.357,-0.159 1.243,-0.119 1.627,0.159c0.384,0.277 2.077,1.574 2.447,1.865c0.371,0.291 1.164,0.952 1.164,0.952c0,0 -0.225,-0.754 -0.145,-1.018c0.079,-0.265 0.304,-0.688 0.516,-0.45c0,0 -0.133,-1.257 0.172,-1.707c0.304,-0.449 0.78,-0.383 1.349,-0.277c0.569,0.105 2.183,0.687 2.46,0.965c0.278,0.278 0.979,0.662 1.098,0.953c0,0 -0.423,-2.752 -0.41,-3.598c0.014,-0.847 0.199,-1.482 0.199,-1.694c0,-0.211 0.079,-0.727 0.132,-0.939c0.053,-0.211 0.079,-0.449 0.026,-0.555c-0.052,-0.106 -0.026,-0.556 0.291,-0.662c0.318,-0.106 0.768,0.159 1.006,0.397c0.238,0.238 0.595,0.357 0.965,0.384c0.371,0.026 1.575,0.45 1.826,0.846c0,0 0.37,-1.177 0.45,-1.481c0.079,-0.304 0.317,-0.516 0.82,-0.529c0.502,-0.014 1.455,0.172 1.971,0.449c0.516,0.278 1.098,0.635 1.098,0.635c0,0 0.82,-1.018 1.23,-1.203c0.41,-0.186 1.124,-0.344 1.892,0.172c0.767,0.515 1.031,0.648 1.031,0.648c0,0 0.516,-1.098 0.635,-1.442c0.119,-0.344 0.768,-1.561 1.085,-1.627c0.317,-0.066 0.926,-0.04 1.217,0.291c0.291,0.331 0.079,0.463 0.251,0.622c0.172,0.158 0.582,0.066 0.728,0.211c0.145,0.146 0.423,0.609 0.595,0.834c0.172,0.224 0.582,0.423 0.781,0.621c0.198,0.199 0,0.529 0.198,0.728c0.198,0.198 0.476,0.212 0.741,1.124c0.264,0.913 0.41,1.323 0.41,1.323c0,0 0.132,-0.04 0.542,0.066c0,0 0.265,-1.415 0.225,-1.746c-0.04,-0.331 0.225,-0.489 0.476,-0.119c0.252,0.37 0.953,1.177 1.098,1.667c0,0 0.662,-2.302 0.926,-2.963c0.265,-0.662 0.662,-1.932 1.072,-1.918c0.41,0.013 0.979,1.045 1.243,1.64c0.265,0.595 0.781,1.839 0.847,2.976c0.066,1.138 -0.159,5.754 -0.225,6.614c-0.066,0.86 -0.794,4.352 -0.926,4.776c0,0 0.899,-0.477 2.037,-1.125c1.138,-0.648 1.706,-0.899 3.056,-2.897c1.349,-1.997 2.698,-3.518 3.121,-4.272c0.424,-0.754 1.138,-2.064 1.284,-2.368c0.145,-0.304 0.172,-0.41 0.383,-0.45c0.212,-0.04 0.424,0.741 0.357,1.72c-0.066,0.979 -0.211,2.169 -0.463,3.095c-0.251,0.926 -1.68,4.524 -1.971,5.08c-0.291,0.555 -0.198,0.886 -0.476,1.68c-0.278,0.793 -1.627,3.637 -2.5,4.801c-0.873,1.164 -0.979,1.522 -1.772,2.209c-0.794,0.688 -0.702,0.754 -0.94,0.94c-0.178,0.139 -1.384,1.312 -2.249,2.125c-1.659,1.246 -4.737,3.537 -5.214,3.736c-0.658,0.274 3.464,-0.932 5.438,-1.353Z" style="fill:#f8d5c2;"/></g></g></svg>