<?xml version="1.0" encoding="UTF-8" standalone="no"?><!DOCTYPE svg PUBLIC "-//W3C//DTD SVG 1.1//EN" "http://www.w3.org/Graphics/SVG/1.1/DTD/svg11.dtd"><svg width="100%" height="100%" viewBox="0 0 150 150" version="1.1" xmlns="http://www.w3.org/2000/svg" xmlns:xlink="http://www.w3.org/1999/xlink" xml:space="preserve" xmlns:serif="http://www.serif.com/" style="fill-rule:evenodd;clip-rule:evenodd;stroke-linejoin:round;stroke-miterlimit:2;"><path id="base" d="M150,75c0,-41.394 -33.606,-75 -75,-75c-41.394,0 -75,33.606 -75,75c0,41.394 33.606,75 75,75c41.394,0 75,-33.606 75,-75Z" style="fill:#333;"/><path id="outline" d="M144,75c0,-38.082 -30.918,-69 -69,-69c-38.082,0 -69,30.918 -69,69c0,38.082 30.918,69 69,69c38.082,0 69,-30.918 69,-69Z" style="fill:#ff7600;"/><path id="core" d="M141,75c0,-36.426 -29.574,-66 -66,-66c-36.426,0 -66,29.574 -66,66c0,36.426 29.574,66 66,66c36.426,0 66,-29.574 66,-66Z" style="fill:#fff;"/><clipPath id="_clip1"><path d="M141,75c0,-36.426 -29.574,-66 -66,-66c-36.426,0 -66,29.574 -66,66c0,36.426 29.574,66 66,66c36.426,0 66,-29.574 66,-66Z"/></clipPath><g clip-path="url(#_clip1)"><g id="ninja"><path d="M106.942,97.225c0,0 -2.23,-5.077 -2.573,-6.896c-0.343,-1.818 -0.343,-4.7 -0.343,-4.7l0.72,0.755c0,0 0.412,4.391 0.721,5.455c0.309,1.063 1.098,4.597 1.475,5.386Z" style="fill:#2a140e;"/><path d="M113.48,80.715c0.275,-1.151 -1.114,-2.575 -1.601,-3.48c-0.487,-0.904 -3.271,-5.637 -3.34,-7.029c-0.07,-1.391 1.6,-4.314 0.974,-6.402c-0.626,-2.088 -1.461,-3.619 -1.809,-5.359c-0.348,-1.74 -0.209,-5.358 -1.044,-7.168c-0.835,-1.809 -2.227,-4.523 -3.619,-5.706c-1.392,-1.183 -7.934,-4.315 -7.934,-4.315c0,0 -24.357,0.139 -26.236,2.644c-1.879,2.506 -14.058,36.885 -14.058,36.885c0,0 -3.48,14.614 -4.245,16.284c-0.766,1.671 -2.366,4.246 -3.689,5.429c-1.322,1.183 -1.809,3.688 -2.992,5.08c-1.183,1.392 -11.262,12.022 -14.063,14.94c-2.009,2.092 -4.24,14.358 -4.24,14.358l57.659,14.524c0,0 0.069,-9.557 -0.627,-12.271c-0.696,-2.714 -3.069,-7.662 -2.93,-9.889c0.139,-2.227 -1.907,-7.813 -2.464,-8.927c-0.557,-1.113 -0.626,-3.34 0.139,-4.732c0.766,-1.392 3.758,-4.106 5.08,-5.289c1.323,-1.183 2.784,-4.454 4.594,-5.637c1.809,-1.183 4.593,-2.157 6.75,-1.322c2.157,0.835 6.194,0.139 7.377,-0.557c1.183,-0.696 2.505,-2.436 2.366,-3.967c-0.139,-1.531 -0.974,-2.296 0,-3.619c0.974,-1.322 2.645,-3.34 0.696,-3.966c-1.949,-0.627 -2.505,-0.836 -1.392,-1.81c1.114,-0.974 3.271,-1.948 3.271,-2.714c0,-0.766 -0.293,-1.667 0.453,-2.21c0.747,-0.543 2.002,-0.577 3.223,-0.882c1.221,-0.306 3.094,-0.358 3.701,-2.893Z" style="fill:#ecae97;"/><path d="M105.172,47.229c0.75,-0.088 0.83,-2.805 0.04,-5.373c-0.791,-2.569 -1.699,-5.413 -2.964,-6.599c-1.264,-1.185 -4.623,-2.331 -6.914,-2.291c-2.292,0.039 -3.477,-0.672 -4.702,-0.87c-1.225,-0.197 -2.687,-0.75 -5.097,-0.909c-2.411,-0.158 -8.14,0.04 -9.997,0.119c-1.857,0.079 -7.626,0.514 -9.048,0.83c-1.423,0.316 -4.781,1.58 -5.848,1.62c-1.067,0.039 -1.383,0.316 -1.383,0.316c0,0 0.869,0.711 1.067,1.225c0,0 -0.277,0.197 -1.067,0.276c-0.79,0.079 -0.277,0.87 -1.067,1.304c-0.79,0.435 -0.948,0.316 -1.422,0.514c-0.474,0.197 0.75,0.988 0.276,1.462c-0.474,0.474 -0.513,0.83 -1.383,1.185c-0.869,0.356 -0.869,0.237 -1.58,0.593c-0.711,0.355 -1.502,0.672 -1.146,1.106c0.356,0.435 1.106,0.514 0.553,1.107c-0.553,0.592 -0.869,0.908 -1.146,1.461c-0.276,0.554 -1.106,1.225 -1.185,1.62c-0.079,0.396 -0.237,4.268 -0.316,5.611c-0.079,1.344 -0.751,6.994 -0.751,8.021c0,1.028 0.672,6.915 0.869,7.903c0.198,0.987 1.462,5.61 1.462,6.756c0,1.146 0.633,3.201 0.04,3.951c-0.593,0.751 -1.857,1.067 -1.897,1.739c-0.039,0.672 -0.316,4.07 -0.197,5.137c0.118,1.066 0.869,1.857 0.434,2.884c-0.434,1.027 -2.054,1.857 -3.24,2.884c-1.185,1.028 -1.462,0.791 -1.58,2.173c-0.119,1.383 0,4.347 -0.356,5.295c-0.355,0.948 -1.422,1.304 -1.58,2.45c-0.158,1.146 -0.04,2.924 -0.316,3.912c-0.277,0.987 -0.198,2.844 -0.83,3.24c-0.632,0.395 -0.435,1.303 -1.857,1.343c-1.423,0.039 -3.438,0.079 -3.438,0.079c0,0 2.173,0.593 2.648,1.264c0.474,0.672 0.632,0.396 0.632,0.396c0,0 0.553,-0.475 1.185,-1.107c0.632,-0.632 1.62,-1.817 1.976,-2.489c0.355,-0.672 1.817,-3.201 2.173,-3.833c0.356,-0.632 2.213,-2.608 2.608,-3.042c0.395,-0.435 1.817,-2.766 2.291,-4.939c0.475,-2.173 2.332,-6.085 2.687,-7.112c0.356,-1.028 0.316,-2.095 0.632,-2.608c0.317,-0.514 1.265,-1.146 1.779,-0.79c0.513,0.355 1.857,0.513 3.279,-0.04c1.422,-0.553 3.872,-3.675 4.03,-4.86c0.158,-1.185 -0.276,-3.991 0.356,-5.453c0.632,-1.462 0.909,-2.015 1.067,-2.489c0.158,-0.474 0.75,-2.094 0.988,-2.292c0,0 0.671,-3.161 1.066,-4.148c0.395,-0.988 2.213,-3.28 3.24,-4.781c1.028,-1.502 3.675,-3.912 4.386,-4.781c0.711,-0.87 3.675,-2.648 5.216,-3.675c1.541,-1.027 1.857,-2.173 3.003,-2.766c1.146,-0.593 3.358,-0.869 4.109,-1.383c0.751,-0.513 1.146,-2.687 1.897,-3.121c0.75,-0.435 3.556,0 4.82,0.276c1.264,0.277 5.295,1.067 6.243,1.186c0.948,0.118 4.583,0.592 5.255,0.513Zm-3.032,52.396c-0.413,-0.325 -1.188,-0.985 -1.579,-1.645c-0.549,-0.926 -1.167,-4.392 -1.132,-5.867c0.034,-1.475 0.652,-4.803 1.201,-5.626c0.548,-0.824 1.553,-2.883 1.749,-2.333c0.343,0.96 0.206,1.647 0.378,2.401c0.171,0.755 -1.716,3.088 -2.368,4.701c-0.651,1.612 -0.103,4.391 0.309,6.072c0.293,1.195 1.036,1.957 1.442,2.297c0.166,0.131 0.274,0.207 0.274,0.207c0,0 -0.109,-0.068 -0.274,-0.207Z" style="fill:#2a140e;"/><path d="M79.376,126.41c0,0 0.433,4.832 0.702,5.503c0.268,0.671 1.231,3.222 1.499,4.188c0.269,0.966 0.779,2.953 0.94,4c0.161,1.047 1.1,3.06 1.1,3.06c0,0 0.752,-1.101 0.564,-1.745c-0.188,-0.644 -1.289,-4.08 -1.423,-4.751c-0.134,-0.671 -1.073,-3.785 -1.288,-4.671c-0.215,-0.886 -0.671,-1.987 -0.94,-2.899c-0.268,-0.913 -0.778,-2.094 -1.154,-2.685Zm-0.107,15.865c0,0 -2.98,-2.389 -4.859,-4.563c-1.879,-2.175 -5.261,-6.738 -6.094,-7.919c-0.832,-1.181 -5.019,-5.396 -7.167,-6.899c-2.147,-1.503 -7.033,-5.181 -8.241,-5.772c-1.208,-0.59 -3.087,-2.603 -9.449,-2.066c-6.362,0.536 -14.282,6.083 -15.624,7.076c-1.342,0.993 2.823,10.718 2.823,10.718c0,0 2.735,-4.104 7.218,-4.936c4.483,-0.833 10.871,-1.557 13.878,-0.698c3.006,0.859 5.127,2.63 6.093,3.516c0.967,0.886 3.758,4.537 4.564,5.208c0.805,0.671 2.765,3.463 3.409,5.208c0.644,1.744 13.449,1.127 13.449,1.127Z" style="fill:#030112;"/></g></g></svg>