<?xml version="1.0" encoding="UTF-8" standalone="no"?><!DOCTYPE svg PUBLIC "-//W3C//DTD SVG 1.1//EN" "http://www.w3.org/Graphics/SVG/1.1/DTD/svg11.dtd"><svg width="100%" height="100%" viewBox="0 0 150 150" version="1.1" xmlns="http://www.w3.org/2000/svg" xmlns:xlink="http://www.w3.org/1999/xlink" xml:space="preserve" xmlns:serif="http://www.serif.com/" style="fill-rule:evenodd;clip-rule:evenodd;stroke-linejoin:round;stroke-miterlimit:2;"><path id="base" d="M150,75c0,-41.394 -33.606,-75 -75,-75c-41.394,0 -75,33.606 -75,75c0,41.394 33.606,75 75,75c41.394,0 75,-33.606 75,-75Z" style="fill:#03214f;"/><path id="outline" d="M144,75c0,-38.082 -30.918,-69 -69,-69c-38.082,0 -69,30.918 -69,69c0,38.082 30.918,69 69,69c38.082,0 69,-30.918 69,-69Z" style="fill:#1fbaed;"/><path id="core" d="M141,75c0,-36.426 -29.574,-66 -66,-66c-36.426,0 -66,29.574 -66,66c0,36.426 29.574,66 66,66c36.426,0 66,-29.574 66,-66Z" style="fill:#fff;"/><clipPath id="_clip1"><path d="M141,75c0,-36.426 -29.574,-66 -66,-66c-36.426,0 -66,29.574 -66,66c0,36.426 29.574,66 66,66c36.426,0 66,-29.574 66,-66Z"/></clipPath><g clip-path="url(#_clip1)"><g id="disguised-toast"><path d="M59.947,91.9l4.091,-21.376l0.358,-2.045c0,-0 -2.608,-6.648 -2.812,-8.387c-0,0 -1.995,-0.614 -2.404,-2.199c-0.409,-1.585 -0.562,-4.193 -0.562,-5.011c-0,-0.819 0.255,-2.404 0.511,-4.143c0.256,-1.738 1.432,-10.687 1.841,-11.966c0.409,-1.278 16.313,-13.142 16.313,-13.142l19.739,17.489c0,-0 2.353,6.034 2.66,6.852c0.306,0.819 0.051,2.302 -0.154,3.324c-0.204,1.023 -0.613,1.79 -0.665,2.915c-0.051,1.125 -0.102,2.25 -0.306,2.813c-0.205,0.562 -0.921,1.943 -1.637,2.454c-0.716,0.512 -1.739,1.177 -2.301,1.279c-0,-0 -0.869,3.835 -1.176,4.602c-0.307,0.767 -1.432,3.427 -2.301,3.887l-0.052,1.841l2.506,16.671l-33.649,4.142Z" style="fill:#b07960;"/><path d="M61.283,59.979c0,-0 -0.427,-1.534 -0.492,-2.396c-0.065,-0.862 -0.108,-2.5 -0.431,-3.147c-0.323,-0.646 -0.711,-1.207 -0.884,-2.047c-0.172,-0.841 -0.258,-1.919 -0.754,-2.587c-0.496,-0.668 -1.078,-1.336 -1.531,-2.371c-0.452,-1.034 -0.301,-2.802 -0.28,-3.47c0.022,-0.668 0.41,-3.685 0.431,-5.022c0.022,-1.336 -0.107,-1.078 0.539,-2.608c0.647,-1.53 0.625,-3.556 1.25,-5.065c0.625,-1.509 0.281,-1.293 1.401,-2.479c1.121,-1.185 5.152,-4.741 6.553,-5.453c1.401,-0.711 1.228,-0.431 2.952,-1.401c1.725,-0.97 1.337,-1.185 3.277,-1.25c1.939,-0.064 9.289,-0.517 10.97,-0.366c1.682,0.151 1.768,0.129 3.233,0.97c1.466,0.84 2.371,1.293 3.449,2.09c1.078,0.798 4.289,2.371 4.979,3.492c0.69,1.121 -0.948,-0.84 1.099,2.112c2.048,2.953 2.069,3.858 2.177,4.678c0.108,0.819 0.862,4.246 0.862,5.172c0,0.927 -0.582,1.811 -0.668,2.996c-0.086,1.186 0.539,2.953 0.711,4.117c0.173,1.164 0.367,1.703 -0.172,2.069c-0.539,0.367 -1.336,0.13 -1.875,0.841c-0.539,0.711 -1.875,3.276 -2.091,4.052c-0.215,0.776 -0.345,1.681 -0.56,2.694c-0.216,1.013 -0.496,3.384 -0.496,3.384c-0,0 0.022,-5.841 -0,-6.876c-0.022,-1.034 0.69,-5.819 -0.56,-7.198c-1.251,-1.38 -1.574,-1.919 -2.414,-2.608c-0.841,-0.69 -2.005,-0.69 -2.156,-2.134c-0.151,-1.444 0.151,-2.328 -0.56,-2.975c-0.711,-0.646 -1.725,-2.241 -3.578,-3.039c-1.854,-0.797 -1.336,-0.495 -3.212,-1.659c-1.875,-1.164 -0.409,-1.552 -3.75,-1.746c-3.341,-0.194 -5.41,-0.496 -7.544,0.172c-2.134,0.668 -2.953,1.423 -4.095,2.199c-1.142,0.776 -1.616,1.293 -1.918,1.875c-0.302,0.582 -0.41,0.603 -0.431,2.134c-0.022,1.53 0.043,2.241 -0.367,2.823c-0.409,0.582 -1.401,1.875 -2.478,2.738c-1.078,0.862 -0.97,1.077 -1.164,2.737c-0.194,1.659 -0.094,12.68 0.578,14.552Z" style="fill:#0e0d16;"/><path d="M123.813,115.171c-0.968,-13.557 -94.023,-9.27 -97.041,-0.217c0,0 -0.506,9.248 -0.213,12.371c0.097,1.03 10.557,21.874 24.193,24.187c27.706,4.7 70.645,-7.952 70.645,-7.952c-0,0 2.652,-25.081 2.416,-28.389Z" style="fill:#9f6b5c;"/><path d="M64.344,69.963c0,-0 0.049,2.684 0.244,3.904c0.195,1.22 0.635,3.953 0.83,4.685c0.195,0.732 -0,1.855 1.025,3.27c1.025,1.416 4.002,4.1 5.515,4.588c1.513,0.488 3.123,0.683 5.222,0.683c2.098,0 3.855,0.049 5.075,-0.39c1.221,-0.44 2.782,-0.976 3.758,-2.441c0.977,-1.464 2.343,-3.611 2.587,-4.538c0.244,-0.928 1.269,-5.076 1.318,-5.759c0.049,-0.684 1.171,-3.612 1.171,-3.612c0,0 4.929,2.099 6.93,2.636c2.001,0.536 4.783,1.317 7.419,2.147c2.635,0.83 7.516,1.855 8.638,2.635c1.123,0.781 2.733,3.173 3.319,4.295c0.586,1.123 2.831,6.442 3.026,8.59c0.195,2.147 0.781,5.173 1.025,7.272c0.244,2.098 1.757,5.954 2.001,7.516c0.244,1.562 1.513,6.979 2.294,8.638c0.78,1.66 2.001,4.832 1.317,5.759c-0.683,0.927 -3.074,2.44 -3.611,2.489l-0.049,-5.124c-0,-0 -0.634,-1.172 -2.44,-1.172c-1.806,0 -2.392,-0.585 -4.734,0.196c-2.343,0.781 -3.319,1.854 -5.076,2.44c-1.757,0.586 -2.245,1.318 -2.245,1.318c-0,-0 1.513,-2.294 1.074,-3.026c-0.44,-0.732 -1.074,-0.586 -1.074,-0.586c-0,0 1.366,-1.611 0.878,-2.245c-0.488,-0.634 -1.317,-1.122 -1.903,-0.488c-0.586,0.634 -1.269,0.976 -1.269,0.976c0,0 0.098,-1.074 -0.39,-1.415c-0.488,-0.342 -1.806,0.39 -2.441,1.366c-0.634,0.976 -2.879,4.002 -3.465,5.027c-0.585,1.025 -1.757,4.637 -2.147,5.662c-0.391,1.024 -2.148,3.513 -2.684,4.441c-0.537,0.927 -1.123,1.659 -1.123,1.659c0,0 -11.176,-0.097 -12.884,-0.146c-1.709,-0.049 -9.029,-0.879 -12.397,-1.66c-3.367,-0.781 -11.03,-2.586 -12.933,-2.733c-1.903,-0.146 -6.735,0.342 -7.272,0.586c-0,-0 -0.146,-4.246 -0.293,-4.734c-0.146,-0.488 0.147,-2.392 -2.587,-3.172c-2.733,-0.781 -5.71,-2.05 -8.15,-2.587c-2.44,-0.537 -9.566,-1.025 -10.347,-0.879c0,0 -0.341,11.03 -0.146,12.885c0.195,1.854 -1.659,-5.515 -1.659,-5.515l-0.098,-3.465c0,-0 -2.391,-0.879 -2.294,-2.245c0.098,-1.367 0.976,-4.002 1.22,-4.734c0.244,-0.732 0.879,-4.686 1.074,-5.759c0.195,-1.074 0.976,-3.709 1.123,-5.271c0.146,-1.562 1.171,-4.929 1.61,-6.491c0.439,-1.562 1.367,-6.003 1.708,-7.077c0.342,-1.074 2.05,-5.076 2.733,-6.345c0.684,-1.268 2.733,-3.709 3.954,-4.831c1.22,-1.123 7.32,-2.245 8.687,-2.636c1.366,-0.39 6.979,-1.464 8.101,-1.854c1.123,-0.391 3.222,-1.464 5.125,-1.757c1.903,-0.293 4.636,-0.879 5.71,-0.976Z" style="fill:#0f0d11;"/></g></g></svg>