<?xml version="1.0" encoding="UTF-8" standalone="no"?><!DOCTYPE svg PUBLIC "-//W3C//DTD SVG 1.1//EN" "http://www.w3.org/Graphics/SVG/1.1/DTD/svg11.dtd"><svg width="100%" height="100%" viewBox="0 0 150 150" version="1.1" xmlns="http://www.w3.org/2000/svg" xmlns:xlink="http://www.w3.org/1999/xlink" xml:space="preserve" xmlns:serif="http://www.serif.com/" style="fill-rule:evenodd;clip-rule:evenodd;stroke-linejoin:round;stroke-miterlimit:2;"><path id="base" d="M150,75c0,-41.394 -33.606,-75 -75,-75c-41.394,0 -75,33.606 -75,75c0,41.394 33.606,75 75,75c41.394,0 75,-33.606 75,-75Z" style="fill:#181a1f;"/><path id="outline" d="M144,75c0,-38.082 -30.918,-69 -69,-69c-38.082,0 -69,30.918 -69,69c0,38.082 30.918,69 69,69c38.082,0 69,-30.918 69,-69Z" style="fill:#9da5b4;"/><path id="core" d="M141,75c0,-36.426 -29.574,-66 -66,-66c-36.426,0 -66,29.574 -66,66c0,36.426 29.574,66 66,66c36.426,0 66,-29.574 66,-66Z" style="fill:#2c323c;"/><clipPath id="_clip1"><path d="M141,75c0,-36.426 -29.574,-66 -66,-66c-36.426,0 -66,29.574 -66,66c0,36.426 29.574,66 66,66c36.426,0 66,-29.574 66,-66Z"/></clipPath><g clip-path="url(#_clip1)"><g id="Kyle"><path d="M7.505,133.58l46.968,-5.673c0,0 0.327,2.512 0.874,3.386c0.546,0.874 1.148,2.023 2.349,3.334c1.202,1.311 0.546,1.42 1.639,2.84c1.092,1.42 1.092,1.421 1.857,2.732c0.764,1.31 -40.632,10.484 -40.632,10.484l-13.055,-17.103Z" style="fill:#1d1c25;"/><path d="M12.695,42.331c1.892,-0.534 3.386,0 7.1,-0.109c3.714,-0.109 4.806,-1.638 11.469,-0.655c6.662,0.983 9.065,0.327 13.434,1.747c4.369,1.42 5.571,2.294 9.612,2.84c4.042,0.546 7.864,0.765 7.864,0.765l6.663,-0.437l33.205,36.044c0,0 2.075,1.42 2.949,3.168c0.874,1.748 1.311,2.403 1.529,3.714c0.219,1.31 0.655,3.058 1.311,5.242c0.655,2.185 1.201,3.386 1.638,4.588c0.437,1.201 -0.109,2.949 0.656,3.823c0.764,0.874 1.747,2.73 2.949,4.041c1.201,1.311 1.966,2.294 2.075,3.386c0.109,1.092 -0.328,1.639 0.983,3.386c1.311,1.748 2.621,4.588 3.604,5.898c0.983,1.311 0.219,0.11 0.983,1.639c0.765,1.529 1.363,3.22 2.347,4.64c0.983,1.419 -19.058,12.836 -20.696,11.853c-1.639,-0.983 -4.697,-2.403 -4.697,-2.403c0,0 -1.42,-0.219 -2.512,-1.748c-1.093,-1.529 -2.731,-3.823 -3.386,-4.915c-0.656,-1.092 -2.185,-3.386 -2.731,-4.369c-0.546,-0.983 -1.092,-2.403 -2.403,-3.604c-1.311,-1.202 -4.26,-1.53 -4.26,-1.53c0,0 -0.655,-0.546 -2.512,0.656c-1.857,1.201 -2.84,1.529 -4.697,2.512c-1.856,0.983 -6.99,4.369 -6.99,4.369c0,0 -1.638,0.437 -4.478,0.655c-2.84,0.219 -4.588,0.437 -4.588,0.437c0,0 -5.133,0.765 -7.427,1.529c-2.294,0.765 -2.622,-0.218 -5.461,0.874c-2.84,1.092 -4.253,1.773 -6.336,2.403c-24.429,7.392 -58.337,-81.646 -27.197,-90.439Z" style="fill:#782833;"/><path d="M69.274,97.381c-1.483,0.371 -3.932,-1.748 -5.57,-4.587c-1.639,-2.84 -3.605,-11.578 -3.386,-14.418c0.218,-2.84 2.021,-16.005 3.441,-18.845c1.42,-2.84 3.497,-8.25 4.589,-9.233c1.092,-0.983 17.092,-12.991 17.092,-12.991l23.811,5.024l3.167,22.938c0,0 -4.696,9.502 -6.007,11.032c-1.311,1.529 -5.461,5.788 -7.537,7.318c-2.075,1.529 -7.209,4.369 -10.704,4.369c-3.495,0 -8.301,-0.219 -8.301,-0.219c0,0 -3.823,4.042 -5.898,5.461c-2.075,1.42 -4.26,4.042 -4.697,4.151Z" style="fill:#a38771;"/><path d="M109.276,70.122c-0.296,0.041 -0.462,0.062 -0.462,0.062c0,0 -1.966,-1.202 -1.857,-2.512c0.109,-1.311 -0.218,-2.949 -0.218,-2.949l-2.443,-2.125c0,0 -2.899,-1.934 -3.734,-3.099c-3.009,-4.198 -1.34,-7.556 -0.575,-9.086c0.764,-1.529 1.072,-2.402 1.072,-2.402c0,0 -2.145,-0.806 -3.535,3.972c-0.357,1.227 -0.397,3.783 -0.397,3.783c0,0 -1.313,-1.184 -1.679,-2.661c-0.744,-3.009 1.569,-6.405 2.225,-7.278c0.655,-0.874 1.529,-2.076 1.529,-2.076l-2.731,-0.437c0,0 -2.114,-0.001 -4.587,3.277c-0.803,1.064 -1.311,2.294 -1.42,3.277c-0.109,0.983 0.328,3.714 0.328,3.714c0,0 -2.92,-1.092 -3.247,-3.456c-0.211,-1.518 0.734,-3.863 0.734,-3.863c0,0 1.748,-3.058 -0.546,-2.075c-2.293,0.983 -1.747,0.546 -3.058,1.42c-1.311,0.874 -5.024,3.823 -5.024,3.823c0,0 -0.547,0.546 -1.857,2.075c-1.311,1.529 -2.731,3.168 -2.731,3.168c0,0 -2.294,0.874 -3.277,0.764c-0.983,-0.109 -2.075,0.437 -2.184,-1.31c-0.109,-1.748 -0.656,-3.386 -1.42,-2.731c-0.765,0.655 -1.202,2.949 -2.512,2.621c-1.311,-0.327 -1.966,-2.73 -2.185,-3.932c-0.235,-1.294 -0.094,-2.426 0.566,-3.584c0.645,-1.132 1.807,-2.602 3.555,-3.912c1.747,-1.311 3.088,-1.887 4.508,-3.635c1.42,-1.747 2.949,-3.177 4.041,-4.488c1.093,-1.311 1.748,-3.495 4.916,-5.024c3.167,-1.529 4.398,-2.304 6.692,-2.413c2.294,-0.109 3.882,-0.527 6.832,-0.527c2.949,0 6.573,0.1 7.993,0.537c1.42,0.437 4.041,1.31 5.789,2.621c1.748,1.311 3.058,2.731 4.478,4.478c1.42,1.748 1.887,2.969 3.416,4.717c1.529,1.747 2.81,3.148 3.356,4.677c0.546,1.529 1.529,4.915 1.639,8.192c0.109,3.277 0.218,6.881 -0.219,8.41c-0.437,1.529 -0.874,2.949 -2.184,4.915c-1.284,1.926 -1.52,3.432 -4.3,4.109c-0.08,0.125 -0.149,0.214 -0.204,0.255c-0.517,0.398 -1.152,0.04 -1.748,1.232c-0.596,1.192 -0.318,1.63 -0.875,2.464c-0.556,0.834 -0.993,2.186 -1.748,2.662c-0.755,0.477 -2.583,0.676 -2.583,0.676l-1.033,-0.159c0,0 0.596,-1.152 1.311,-2.106c0.715,-0.954 1.312,-1.788 1.391,-2.543c0.033,-0.312 0.113,-0.882 0.202,-1.518Zm-4.067,-20.909c0,0 -1.182,0.817 -2.145,2.035c-1.42,1.798 -1.371,3.478 -1.181,5.014c0.182,1.474 2.105,5.969 2.105,5.969c0,0 0.784,-2.205 0.675,-4.062c-0.109,-1.857 0.656,-4.369 0.874,-5.789c0.219,-1.42 -0.328,-3.167 -0.328,-3.167Z" style="fill:#232221;"/></g></g></svg>